<?xml version="1.0" encoding="utf-8"?>
<!-- Generator: Adobe Illustrator 18.1.1, SVG Export Plug-In . SVG Version: 6.00 Build 0)  -->
<!DOCTYPE svg PUBLIC "-//W3C//DTD SVG 1.1//EN" "http://www.w3.org/Graphics/SVG/1.1/DTD/svg11.dtd">
<svg version="1.1" id="Layer_1" xmlns="http://www.w3.org/2000/svg" xmlns:xlink="http://www.w3.org/1999/xlink" x="0px" y="0px"
	 viewBox="-423.3 246.5 300.5 216" enable-background="new -423.3 246.5 300.5 216" xml:space="preserve">
<path fill="#FFFFFF" d="M-179.9,323c-4.1-42.9-39.8-76.5-83.7-76.5c-34,0-63.1,20.2-76.5,49.1c-4-1.3-8.2-2.2-12.7-2.2
	c-23.3,0-42.3,18.9-42.3,42.3c0,4.6,0.9,9,2.3,13.2c-18.2,10.6-30.5,30-30.5,52.5c0,33.7,27.3,61.1,61.1,61.1v0h169.1v0
	c38.9,0,70.4-31.5,70.4-70.4C-122.7,357.7-147.3,329.2-179.9,323z"/>
<text transform="matrix(1 0 0 1 -358.4243 462.7775)" display="none" fill="#FFFFFF" font-family="'Lato-Bold'" font-size="160">W</text>
<g>
	<path fill="#7D278F" d="M-223.7,429.3c-0.4,1.4-0.8,2.5-1.5,3.4c-0.6,0.8-1.5,1.5-2.8,1.9s-2.8,0.7-4.7,0.9
		c-1.9,0.1-4.4,0.2-7.4,0.2c-3.3,0-6-0.1-8-0.2c-2-0.1-3.6-0.4-4.8-0.9c-1.2-0.4-2-1.1-2.5-1.9c-0.5-0.8-0.9-2-1.2-3.4l-18.2-72.1
		h-0.2l-17.2,72.1c-0.3,1.3-0.7,2.4-1.2,3.3c-0.5,0.8-1.4,1.5-2.5,2c-1.1,0.5-2.7,0.8-4.7,0.9c-2,0.1-4.6,0.2-7.8,0.2
		c-3.4,0-6.1-0.1-8.1-0.2c-2-0.1-3.6-0.4-4.8-0.9c-1.2-0.4-2-1.1-2.5-1.9c-0.5-0.8-1-2-1.3-3.4L-351,330c-0.5-2.1-0.8-3.8-0.9-5
		c-0.1-1.2,0.3-2.1,1-2.8c0.7-0.6,1.9-1,3.6-1.2c1.7-0.1,4-0.2,7-0.2c2.8,0,4.9,0,6.5,0.1c1.6,0.1,2.8,0.3,3.6,0.6
		c0.8,0.3,1.4,0.8,1.7,1.4c0.3,0.6,0.5,1.5,0.7,2.6l20,87.1h0.1l20.7-86.5c0.2-1.1,0.5-2,0.9-2.7c0.4-0.7,1-1.2,1.9-1.6
		c0.9-0.4,2.2-0.6,3.7-0.8c1.6-0.1,3.7-0.2,6.3-0.2c2.8,0,5.1,0.1,6.7,0.2c1.7,0.1,3,0.4,3.9,0.7c0.9,0.4,1.6,0.9,2,1.6
		c0.4,0.7,0.7,1.6,1,2.8l21.4,86.5h0.2l20-86.8c0.2-0.9,0.4-1.7,0.7-2.4c0.3-0.7,0.8-1.2,1.7-1.6c0.8-0.4,2-0.6,3.5-0.8
		c1.5-0.1,3.7-0.2,6.4-0.2c2.6,0,4.6,0.1,6,0.2c1.4,0.1,2.5,0.5,3.1,1.2c0.6,0.6,0.9,1.6,0.8,2.9c-0.1,1.3-0.4,3-0.9,5.1
		L-223.7,429.3z"/>
</g>
<polyline display="none" fill="none" stroke="#000000" stroke-miterlimit="10" points="-319.6,464.1 -328,480.8 -336.4,497.5 
	-344.7,480.8 -353.1,464.1 "/>
</svg>
